<?xml version="1.0" standalone="no"?>
<!DOCTYPE svg PUBLIC "-//W3C//DTD SVG 20010904//EN"
 "http://www.w3.org/TR/2001/REC-SVG-20010904/DTD/svg10.dtd">
<svg version="1.0" xmlns="http://www.w3.org/2000/svg"
 width="260.000000pt" height="260.000000pt" viewBox="0 0 260.000000 260.000000"
 preserveAspectRatio="xMidYMid meet">
<metadata>
Created by potrace 1.14, written by Peter Selinger 2001-2017
</metadata>
<g transform="translate(0.000000,260.000000) scale(0.100000,-0.100000)"
fill="#000000" stroke="none">
<path d="M344 2317 c-14 -10 -22 -23 -19 -28 4 -5 3 -9 -2 -9 -4 0 -9 -33 -10
-73 -1 -39 -4 -110 -7 -157 -3 -47 -8 -134 -11 -195 -3 -60 -8 -139 -11 -175
-8 -123 -14 -225 -16 -273 -1 -26 -5 -50 -10 -53 -4 -3 -4 -13 2 -23 5 -10 7
-21 4 -23 -3 -3 -7 -57 -10 -119 -3 -63 -7 -130 -8 -149 -1 -19 -5 -41 -9 -48
-5 -7 -3 -12 3 -12 7 0 8 -6 2 -17 -4 -10 -8 -44 -7 -75 1 -37 -2 -55 -9 -51
-6 3 -6 0 1 -7 6 -7 8 -23 4 -39 -3 -14 -6 -59 -6 -98 0 -40 -2 -73 -5 -73 -3
0 -5 -28 -5 -62 1 -73 -3 -90 -19 -82 -6 3 -4 0 4 -8 11 -9 14 -24 10 -54 -4
-27 -2 -45 7 -53 7 -6 13 -8 13 -4 0 5 15 9 34 9 19 0 33 -3 30 -7 -2 -4 3 -9
11 -12 8 -4 12 -1 9 7 -3 8 5 12 26 12 16 0 30 -4 30 -8 0 -5 -10 -6 -23 -2
-26 8 -22 2 12 -16 13 -6 21 -8 17 -2 -7 12 22 38 31 28 4 -4 1 -11 -7 -16
-11 -7 -11 -10 -2 -10 7 0 15 7 18 15 4 8 10 12 15 9 5 -3 7 -10 4 -15 -4 -5
-1 -9 4 -9 6 0 11 7 11 15 0 8 5 15 11 15 5 0 7 -6 3 -12 -5 -8 0 -7 11 2 11
9 16 10 11 3 -4 -7 -3 -13 3 -13 5 0 12 4 16 9 3 6 14 9 25 8 10 -1 16 -5 14
-9 -3 -4 -1 -8 5 -8 5 0 13 4 16 10 10 16 22 12 28 -10 6 -23 37 -17 37 6 0 8
5 14 11 14 6 0 8 -8 5 -17 -5 -15 -4 -15 9 1 13 18 20 15 16 -6 0 -5 3 -8 9
-8 5 0 10 7 10 15 0 8 5 15 11 15 5 0 7 -6 3 -12 -5 -8 0 -7 11 2 11 9 16 10
11 3 -4 -7 -3 -13 3 -13 5 0 12 4 16 9 3 6 14 9 25 8 10 -1 16 -5 14 -9 -3 -4
-1 -8 5 -8 5 0 13 4 16 10 10 16 22 12 28 -10 6 -23 37 -17 37 7 0 8 5 11 10
8 6 -4 8 -12 4 -18 -3 -7 0 -5 8 3 17 19 48 25 48 9 0 -7 3 -9 7 -6 3 4 16 -1
27 -10 12 -10 15 -11 9 -3 -21 23 -16 25 51 25 35 0 62 -3 60 -7 -3 -5 0 -8 5
-8 21 0 26 -2 41 -13 12 -9 13 -9 3 3 -21 23 -16 25 51 25 35 0 62 -3 60 -6
-2 -4 3 -9 11 -12 9 -4 12 -1 8 9 -3 7 0 14 6 14 6 0 11 -4 11 -8 0 -5 11 -14
25 -20 14 -6 24 -8 24 -4 -4 22 4 28 34 27 17 0 38 -4 45 -8 7 -5 12 -4 12 2
0 6 5 11 11 11 5 0 7 -4 4 -10 -3 -6 -1 -10 4 -10 6 0 11 6 11 13 0 8 4 7 11
-3 8 -11 12 -12 16 -2 2 6 9 12 14 12 6 0 7 -4 4 -10 -3 -6 -1 -10 4 -10 6 0
11 3 11 8 0 4 20 7 45 8 36 0 44 -3 40 -15 -5 -12 -2 -12 12 2 18 16 46 18 59
4 11 -11 26 -8 19 3 -3 5 -1 10 4 10 6 0 11 -4 11 -10 0 -5 5 -10 11 -10 5 0
7 6 3 12 -6 10 -4 11 7 1 14 -14 33 -18 25 -5 -2 4 11 8 30 8 33 0 44 -9 24
-21 -5 -3 -10 -1 -10 6 0 7 -3 10 -6 6 -3 -3 -3 -10 0 -16 8 -13 36 -3 36 13
0 7 11 12 25 12 17 0 24 -4 21 -13 -3 -7 -1 -13 3 -13 5 0 12 7 15 16 6 15 10
14 34 -7 15 -13 21 -17 15 -9 -21 23 -16 25 51 25 35 0 62 -3 60 -7 -3 -5 0
-9 5 -9 21 -3 26 -4 41 -13 12 -7 13 -6 3 5 -21 22 -16 24 51 24 35 0 62 -3
60 -6 -2 -4 3 -9 11 -12 8 -4 12 -1 9 7 -3 8 5 12 26 12 16 0 30 -4 30 -8 0
-5 -10 -6 -22 -2 -27 8 -23 2 11 -16 13 -6 21 -7 17 -2 -8 13 12 26 42 28 17
1 22 -3 17 -15 -4 -13 -2 -13 9 2 7 9 22 17 32 17 12 0 15 3 8 8 -6 4 -12 30
-13 57 -3 54 -6 125 -16 280 -3 55 -8 134 -10 175 -2 41 -4 75 -5 75 -1 0 -9
112 -15 220 -2 50 -7 137 -11 195 -3 58 -7 126 -8 153 0 26 -5 47 -10 47 -4 0
-3 6 3 13 6 8 9 16 6 19 -10 9 -12 68 -4 74 5 3 6 11 2 17 -4 7 -8 18 -9 25
-4 27 -16 249 -18 319 0 40 -3 73 -6 73 -3 0 -6 28 -7 63 -1 34 -4 73 -6 87
-3 14 -5 30 -6 37 0 6 -11 15 -24 19 -12 5 -440 9 -951 9 -892 1 -930 0 -952
-18z m271 -1956 c3 -5 1 -12 -5 -16 -5 -3 -10 1 -10 9 0 18 6 21 15 7z m240 0
c3 -5 1 -12 -5 -16 -5 -3 -10 1 -10 9 0 18 6 21 15 7z m475 -1 c0 -5 -4 -10
-10 -10 -5 0 -10 5 -10 10 0 6 5 10 10 10 6 0 10 -4 10 -10z"/>
<path d="M239 343 c-13 -16 -12 -17 4 -4 16 13 21 21 13 21 -2 0 -10 -8 -17
-17z"/>
<path d="M915 350 c-3 -5 -1 -10 4 -10 6 0 11 5 11 10 0 6 -2 10 -4 10 -3 0
-8 -4 -11 -10z"/>
<path d="M997 349 c7 -7 15 -10 18 -7 3 3 -2 9 -12 12 -14 6 -15 5 -6 -5z"/>
<path d="M1033 343 c0 -9 4 -10 14 -2 7 6 13 12 13 14 0 1 -6 2 -13 2 -8 0
-14 -6 -14 -14z"/>
<path d="M1157 349 c7 -7 15 -10 18 -7 3 3 -2 9 -12 12 -14 6 -15 5 -6 -5z"/>
<path d="M1193 343 c0 -9 4 -10 14 -2 7 6 13 12 13 14 0 1 -6 2 -13 2 -8 0
-14 -6 -14 -14z"/>
<path d="M1360 350 c-9 -6 -10 -10 -3 -10 6 0 15 5 18 10 8 12 4 12 -15 0z"/>
<path d="M1395 350 c-3 -5 -1 -10 4 -10 6 0 11 5 11 10 0 6 -2 10 -4 10 -3 0
-8 -4 -11 -10z"/>
<path d="M1551 354 c-1 -6 2 -13 5 -17 8 -8 34 3 34 15 0 6 -6 6 -14 -1 -11
-9 -15 -9 -19 1 -3 7 -6 8 -6 2z"/>
<path d="M1635 350 c-3 -5 -1 -10 4 -10 6 0 11 5 11 10 0 6 -2 10 -4 10 -3 0
-8 -4 -11 -10z"/>
<path d="M1957 349 c7 -7 15 -10 18 -7 3 3 -2 9 -12 12 -14 6 -15 5 -6 -5z"/>
<path d="M1993 343 c0 -9 4 -10 14 -2 7 6 13 12 13 14 0 1 -6 2 -13 2 -8 0
-14 -6 -14 -14z"/>
<path d="M2117 349 c7 -7 15 -10 18 -7 3 3 -2 9 -12 12 -14 6 -15 5 -6 -5z"/>
<path d="M2153 343 c0 -9 4 -10 14 -2 7 6 13 12 13 14 0 1 -6 2 -13 2 -8 0
-14 -6 -14 -14z"/>
<path d="M2320 350 c-9 -6 -10 -10 -3 -10 6 0 15 5 18 10 8 12 4 12 -15 0z"/>
</g>
</svg>
